<svg id="Capa_1" data-name="Capa 1" xmlns="http://www.w3.org/2000/svg" viewBox="0 0 127.56 127.56"><defs><style>.cls-1{fill:#4b84bc;}.cls-2{fill:#3599d5;}.cls-3{fill:#4baae0;}.cls-4{fill:#68b5e5;}.cls-5{fill:#3eaf6d;opacity:0.7;}.cls-6{fill:#2a4a9a;}</style></defs><circle class="cls-1" cx="63.78" cy="63.78" r="63.78"/><circle class="cls-2" cx="63.78" cy="63.78" r="56.69"/><circle class="cls-3" cx="63.78" cy="63.78" r="49.61"/><circle class="cls-4" cx="63.78" cy="63.78" r="42.52"/><polygon class="cls-5" points="42.78 39.13 48.46 52.01 65.41 61.34 63.2 73.29 67.84 76.48 68.34 99.01 71.4 98.07 78.32 80.1 83.65 67.72 75.52 61.94 69.6 60.64 64.36 57.12 61.6 51.4 68.17 50.07 75.98 35.69 54.29 35.17 37.49 35.72 38.02 37.13 42.78 39.13"/><path class="cls-6" d="M32.69,55.63v3.8a2.36,2.36,0,0,0-.66-.14,1,1,0,0,0-.77.33,1.09,1.09,0,0,0-.32.8,2.09,2.09,0,0,0,.35,1l.3.53a5.5,5.5,0,0,1,.82,2.76A4.43,4.43,0,0,1,31,68a4.64,4.64,0,0,1-3.37,1.34,4.49,4.49,0,0,1-1.9-.43V65.06a1.94,1.94,0,0,0,1,.36,1.27,1.27,0,0,0,.86-.3,1,1,0,0,0,.35-.75,3.94,3.94,0,0,0-.56-1.28A6.28,6.28,0,0,1,26.53,60a4.49,4.49,0,0,1,1.34-3.25,4.36,4.36,0,0,1,3.21-1.36A4.9,4.9,0,0,1,32.69,55.63Z"/><path class="cls-6" d="M40.51,59.52V69h-4v-9.5h-3V55.69h10v3.83Z"/><path class="cls-6" d="M49,59.28V69H45V55.69h5.09a5.22,5.22,0,0,1,3.6,1.15,4.23,4.23,0,0,1,1.43,3.28,4.18,4.18,0,0,1-1.77,3.4L55.63,69H51.47l-1.92-4.29V61.3h.31c.84,0,1.25-.36,1.25-1.08s-.48-.94-1.44-.94Z"/><path class="cls-6" d="M61.8,62.33v3.52H60.65V69h-4V60.55A5.25,5.25,0,0,1,58,56.72a5.06,5.06,0,0,1,3.78-1.36,4.43,4.43,0,0,1,3.46,1.24,5.51,5.51,0,0,1,1.12,3.81V69h-4V60.67a2.13,2.13,0,0,0-.19-1.08.71.71,0,0,0-.66-.3q-.93,0-.93,1.38v1.66Z"/><path class="cls-6" d="M74.6,59.52V69h-4v-9.5h-3V55.69h10v3.83Z"/><path class="cls-6" d="M85.41,55.36a6.59,6.59,0,0,1,4.86,2.06,7,7,0,0,1-9.93,9.88,7,7,0,0,1,0-9.91A7,7,0,0,1,85.41,55.36Zm-.12,3.93a2.8,2.8,0,0,0-2.08.89,3.05,3.05,0,0,0-.86,2.17,3,3,0,0,0,.87,2.17,2.75,2.75,0,0,0,2.07.9,2.8,2.8,0,0,0,2.09-.89,3.21,3.21,0,0,0,0-4.35A2.77,2.77,0,0,0,85.29,59.29Z"/><path class="cls-6" d="M100.42,55.63v3.8a2.49,2.49,0,0,0-.67-.14,1.06,1.06,0,0,0-.77.33,1.13,1.13,0,0,0-.32.8,2.21,2.21,0,0,0,.35,1l.3.53a5.51,5.51,0,0,1,.83,2.76A4.41,4.41,0,0,1,98.75,68a4.62,4.62,0,0,1-3.37,1.34,4.49,4.49,0,0,1-1.9-.43V65.06a2,2,0,0,0,1,.36,1.25,1.25,0,0,0,.86-.3.93.93,0,0,0,.35-.75,3.71,3.71,0,0,0-.56-1.28A6.27,6.27,0,0,1,94.26,60a4.45,4.45,0,0,1,1.34-3.25,4.32,4.32,0,0,1,3.21-1.36A5,5,0,0,1,100.42,55.63Z"/></svg>