<?xml version="1.0" encoding="utf-8"?>
<!-- Generator: Adobe Illustrator 26.1.0, SVG Export Plug-In . SVG Version: 6.00 Build 0)  -->
<svg version="1.1" id="Capa_1" xmlns="http://www.w3.org/2000/svg" xmlns:xlink="http://www.w3.org/1999/xlink" x="0px" y="0px"
	 viewBox="0 0 138.9 164.41" style="enable-background:new 0 0 138.9 164.41;" xml:space="preserve">
<style type="text/css">
	.st0{fill:#B2B1B2;stroke:#FFFFFF;stroke-width:3;stroke-miterlimit:10;}
	.st1{fill:none;stroke:#FFFFFF;stroke-miterlimit:10;}
</style>
<path class="st0" d="M20.51,74.19l90.61-0.03c13.36-0.54,24.02-11.53,24.02-25.02c0-13.83-11.21-25.05-25.05-25.05
	c-0.03,0-0.05,0-0.08,0c-5.62-11.82-17.68-20-31.65-20c-11.81,0-22.25,5.85-28.6,14.8c-3.07-1.56-6.55-2.44-10.23-2.44
	c-12.53,0-22.68,10.16-22.68,22.68c0,0.13,0.01,0.26,0.01,0.38C8.93,41.2,2.98,48.24,2.98,56.66C2.98,66.34,10.83,74.19,20.51,74.19
	"/>
<g>
	<g>
		<line class="st1" x1="24.86" y1="126.67" x2="38.25" y2="134.4"/>
		<line class="st1" x1="24.86" y1="134.4" x2="38.25" y2="126.67"/>
		<line class="st1" x1="31.55" y1="138.26" x2="31.55" y2="122.81"/>
		<polyline class="st1" points="34.12,122.88 31.54,124.72 31.54,121.73 		"/>
		<line class="st1" x1="31.54" y1="124.72" x2="28.81" y2="122.98"/>
		<polyline class="st1" points="39.48,128.77 36.71,127.53 39.18,126.09 		"/>
		<line class="st1" x1="36.71" y1="127.53" x2="36.83" y2="124.45"/>
		<polyline class="st1" points="26.32,124.61 26.64,127.66 24.12,126.23 		"/>
		<line class="st1" x1="26.64" y1="127.66" x2="23.88" y2="129.12"/>
		<polyline class="st1" points="34.12,138.41 31.54,136.57 31.54,139.56 		"/>
		<line class="st1" x1="31.54" y1="136.57" x2="28.81" y2="138.31"/>
		<polyline class="st1" points="39.41,132.25 36.66,133.48 39.12,134.92 		"/>
		<line class="st1" x1="36.66" y1="133.48" x2="36.77" y2="136.55"/>
		<polyline class="st1" points="26.33,136.42 26.64,133.37 24.12,134.8 		"/>
		<line class="st1" x1="26.64" y1="133.37" x2="23.87" y2="131.91"/>
	</g>
	<g>
		<line class="st1" x1="100.41" y1="125.89" x2="113.79" y2="133.62"/>
		<line class="st1" x1="100.41" y1="133.62" x2="113.79" y2="125.89"/>
		<line class="st1" x1="107.1" y1="137.48" x2="107.1" y2="122.03"/>
		<polyline class="st1" points="109.67,122.1 107.08,123.94 107.08,120.95 		"/>
		<line class="st1" x1="107.08" y1="123.94" x2="104.35" y2="122.2"/>
		<polyline class="st1" points="115.02,127.99 112.26,126.75 114.72,125.31 		"/>
		<line class="st1" x1="112.26" y1="126.75" x2="112.37" y2="123.67"/>
		<polyline class="st1" points="101.87,123.83 102.19,126.88 99.67,125.45 		"/>
		<line class="st1" x1="102.18" y1="126.88" x2="99.42" y2="128.34"/>
		<polyline class="st1" points="109.67,137.63 107.08,135.79 107.08,138.78 		"/>
		<line class="st1" x1="107.08" y1="135.79" x2="104.35" y2="137.53"/>
		<polyline class="st1" points="114.96,131.47 112.21,132.7 114.66,134.14 		"/>
		<line class="st1" x1="112.21" y1="132.7" x2="112.32" y2="135.77"/>
		<polyline class="st1" points="101.87,135.64 102.18,132.59 99.67,134.02 		"/>
		<line class="st1" x1="102.18" y1="132.59" x2="99.42" y2="131.13"/>
	</g>
	<g>
		<line class="st1" x1="62.88" y1="126.56" x2="76.27" y2="134.29"/>
		<line class="st1" x1="62.88" y1="134.29" x2="76.27" y2="126.56"/>
		<line class="st1" x1="69.58" y1="138.15" x2="69.58" y2="122.7"/>
		<polyline class="st1" points="72.14,122.77 69.56,124.61 69.56,121.62 		"/>
		<line class="st1" x1="69.56" y1="124.61" x2="66.83" y2="122.87"/>
		<polyline class="st1" points="77.5,128.66 74.74,127.42 77.2,125.98 		"/>
		<line class="st1" x1="74.74" y1="127.42" x2="74.85" y2="124.34"/>
		<polyline class="st1" points="64.35,124.5 64.66,127.55 62.15,126.12 		"/>
		<line class="st1" x1="64.66" y1="127.55" x2="61.9" y2="129.02"/>
		<polyline class="st1" points="72.14,138.3 69.56,136.46 69.56,139.46 		"/>
		<line class="st1" x1="69.56" y1="136.46" x2="66.83" y2="138.2"/>
		<polyline class="st1" points="77.44,132.14 74.68,133.37 77.14,134.81 		"/>
		<line class="st1" x1="74.68" y1="133.37" x2="74.79" y2="136.44"/>
		<polyline class="st1" points="64.35,136.31 64.66,133.26 62.15,134.69 		"/>
		<line class="st1" x1="64.66" y1="133.26" x2="61.9" y2="131.8"/>
	</g>
	<g>
		<line class="st1" x1="42.9" y1="98.68" x2="56.29" y2="106.4"/>
		<line class="st1" x1="42.9" y1="106.4" x2="56.29" y2="98.68"/>
		<line class="st1" x1="49.6" y1="110.27" x2="49.6" y2="94.81"/>
		<polyline class="st1" points="52.17,94.88 49.58,96.73 49.58,93.73 		"/>
		<line class="st1" x1="49.58" y1="96.73" x2="46.85" y2="94.99"/>
		<polyline class="st1" points="57.52,100.77 54.76,99.54 57.22,98.09 		"/>
		<line class="st1" x1="54.76" y1="99.54" x2="54.87" y2="96.45"/>
		<polyline class="st1" points="44.37,96.62 44.68,99.67 42.17,98.24 		"/>
		<line class="st1" x1="44.68" y1="99.67" x2="41.92" y2="101.13"/>
		<polyline class="st1" points="52.17,110.42 49.58,108.57 49.58,111.57 		"/>
		<line class="st1" x1="49.58" y1="108.57" x2="46.85" y2="110.31"/>
		<polyline class="st1" points="57.46,104.25 54.7,105.48 57.16,106.93 		"/>
		<line class="st1" x1="54.7" y1="105.48" x2="54.82" y2="108.56"/>
		<polyline class="st1" points="44.37,108.43 44.68,105.38 42.17,106.81 		"/>
		<line class="st1" x1="44.68" y1="105.38" x2="41.92" y2="103.92"/>
	</g>
	<g>
		<line class="st1" x1="80.62" y1="98.44" x2="94" y2="106.17"/>
		<line class="st1" x1="80.62" y1="106.17" x2="94" y2="98.44"/>
		<line class="st1" x1="87.31" y1="110.04" x2="87.31" y2="94.58"/>
		<polyline class="st1" points="89.88,94.65 87.29,96.49 87.29,93.5 		"/>
		<line class="st1" x1="87.29" y1="96.49" x2="84.56" y2="94.76"/>
		<polyline class="st1" points="95.24,100.54 92.47,99.3 94.94,97.86 		"/>
		<line class="st1" x1="92.47" y1="99.3" x2="92.58" y2="96.22"/>
		<polyline class="st1" points="82.08,96.38 82.4,99.43 79.88,98 		"/>
		<line class="st1" x1="82.4" y1="99.43" x2="79.63" y2="100.9"/>
		<polyline class="st1" points="89.88,110.18 87.29,108.34 87.29,111.34 		"/>
		<line class="st1" x1="87.29" y1="108.34" x2="84.56" y2="110.08"/>
		<polyline class="st1" points="95.17,104.02 92.42,105.25 94.87,106.69 		"/>
		<line class="st1" x1="92.42" y1="105.25" x2="92.53" y2="108.32"/>
		<polyline class="st1" points="82.09,108.19 82.4,105.14 79.88,106.58 		"/>
		<line class="st1" x1="82.4" y1="105.14" x2="79.63" y2="103.68"/>
	</g>
</g>
</svg>
