<?xml version="1.0" encoding="utf-8"?>
<!-- Generator: Adobe Illustrator 26.1.0, SVG Export Plug-In . SVG Version: 6.00 Build 0)  -->
<svg version="1.1" id="Capa_1" xmlns="http://www.w3.org/2000/svg" xmlns:xlink="http://www.w3.org/1999/xlink" x="0px" y="0px"
	 viewBox="0 0 138.9 164.41" style="enable-background:new 0 0 138.9 164.41;" xml:space="preserve">
<style type="text/css">
	.st0{fill:#CDCCCC;stroke:#FFFFFF;stroke-width:3;stroke-miterlimit:10;}
	.st1{fill:none;stroke:#FFFFFF;stroke-miterlimit:10;}
</style>
<path class="st0" d="M20.51,74.19l90.61-0.03c13.36-0.54,24.02-11.53,24.02-25.02c0-13.83-11.21-25.05-25.05-25.05
	c-0.03,0-0.05,0-0.08,0c-5.62-11.82-17.68-20-31.65-20c-11.81,0-22.25,5.85-28.6,14.8c-3.07-1.56-6.55-2.44-10.23-2.44
	c-12.53,0-22.68,10.16-22.68,22.68c0,0.13,0.01,0.26,0.01,0.38C8.93,41.2,2.98,48.24,2.98,56.66C2.98,66.34,10.83,74.19,20.51,74.19
	"/>
<g>
	<g>
		<line class="st1" x1="25.01" y1="99" x2="38.4" y2="106.73"/>
		<line class="st1" x1="25.01" y1="106.73" x2="38.4" y2="99"/>
		<line class="st1" x1="31.71" y1="110.59" x2="31.71" y2="95.13"/>
		<polyline class="st1" points="34.28,95.21 31.69,97.05 31.69,94.05 		"/>
		<line class="st1" x1="31.69" y1="97.05" x2="28.96" y2="95.31"/>
		<polyline class="st1" points="39.63,101.1 36.87,99.86 39.33,98.41 		"/>
		<line class="st1" x1="36.87" y1="99.86" x2="36.98" y2="96.77"/>
		<polyline class="st1" points="26.48,96.94 26.79,99.99 24.28,98.56 		"/>
		<line class="st1" x1="26.79" y1="99.99" x2="24.03" y2="101.45"/>
		<polyline class="st1" points="34.28,110.74 31.69,108.89 31.69,111.89 		"/>
		<line class="st1" x1="31.69" y1="108.89" x2="28.96" y2="110.63"/>
		<polyline class="st1" points="39.57,104.57 36.81,105.81 39.27,107.25 		"/>
		<line class="st1" x1="36.81" y1="105.81" x2="36.93" y2="108.88"/>
		<polyline class="st1" points="26.48,108.75 26.79,105.7 24.28,107.13 		"/>
		<line class="st1" x1="26.79" y1="105.7" x2="24.03" y2="104.24"/>
	</g>
	<g>
		<line class="st1" x1="100.25" y1="99" x2="113.64" y2="106.73"/>
		<line class="st1" x1="100.25" y1="106.73" x2="113.64" y2="99"/>
		<line class="st1" x1="106.95" y1="110.59" x2="106.95" y2="95.13"/>
		<polyline class="st1" points="109.51,95.21 106.93,97.05 106.93,94.05 		"/>
		<line class="st1" x1="106.93" y1="97.05" x2="104.2" y2="95.31"/>
		<polyline class="st1" points="114.87,101.1 112.11,99.86 114.57,98.41 		"/>
		<line class="st1" x1="112.11" y1="99.86" x2="112.22" y2="96.77"/>
		<polyline class="st1" points="101.72,96.94 102.03,99.99 99.52,98.56 		"/>
		<line class="st1" x1="102.03" y1="99.99" x2="99.27" y2="101.45"/>
		<polyline class="st1" points="109.51,110.74 106.93,108.89 106.93,111.89 		"/>
		<line class="st1" x1="106.93" y1="108.89" x2="104.2" y2="110.63"/>
		<polyline class="st1" points="114.81,104.57 112.05,105.81 114.51,107.25 		"/>
		<line class="st1" x1="112.05" y1="105.81" x2="112.16" y2="108.88"/>
		<polyline class="st1" points="101.72,108.75 102.03,105.7 99.52,107.13 		"/>
		<line class="st1" x1="102.03" y1="105.7" x2="99.27" y2="104.24"/>
	</g>
	<g>
		<line class="st1" x1="62.73" y1="126.78" x2="76.11" y2="134.5"/>
		<line class="st1" x1="62.73" y1="134.5" x2="76.11" y2="126.78"/>
		<line class="st1" x1="69.42" y1="138.37" x2="69.42" y2="122.91"/>
		<polyline class="st1" points="71.99,122.98 69.4,124.83 69.4,121.83 		"/>
		<line class="st1" x1="69.4" y1="124.83" x2="66.67" y2="123.09"/>
		<polyline class="st1" points="77.35,128.87 74.58,127.64 77.05,126.19 		"/>
		<line class="st1" x1="74.58" y1="127.64" x2="74.69" y2="124.55"/>
		<polyline class="st1" points="64.19,124.71 64.51,127.76 61.99,126.34 		"/>
		<line class="st1" x1="64.51" y1="127.76" x2="61.74" y2="129.23"/>
		<polyline class="st1" points="71.99,138.51 69.4,136.67 69.4,139.67 		"/>
		<line class="st1" x1="69.4" y1="136.67" x2="66.67" y2="138.41"/>
		<polyline class="st1" points="77.28,132.35 74.53,133.58 76.98,135.02 		"/>
		<line class="st1" x1="74.53" y1="133.58" x2="74.64" y2="136.66"/>
		<polyline class="st1" points="64.2,136.52 64.51,133.47 61.99,134.91 		"/>
		<line class="st1" x1="64.51" y1="133.47" x2="61.74" y2="132.02"/>
	</g>
</g>
</svg>
