<?xml version="1.0" encoding="utf-8"?>
<!-- Generator: Adobe Illustrator 26.1.0, SVG Export Plug-In . SVG Version: 6.00 Build 0)  -->
<svg version="1.1" id="Capa_1" xmlns="http://www.w3.org/2000/svg" xmlns:xlink="http://www.w3.org/1999/xlink" x="0px" y="0px"
	 viewBox="0 0 79.37 138.9" style="enable-background:new 0 0 79.37 138.9;" xml:space="preserve">
<style type="text/css">
	.st0{fill:#4587E5;stroke:#FFFFFF;stroke-width:2;stroke-miterlimit:10;}
	.st1{enable-background:new    ;}
	.st2{fill:#FFFFFF;}
	.st3{fill:none;stroke:#FFFFFF;stroke-width:3;stroke-miterlimit:10;}
</style>
<g>
	<path class="st0" d="M6.36,85.32c0,0,11.79-10.83,31.86,5.55c20.44,14.83,35.21-2.18,35.21-2.18s4.69,24.99-16.07,40.34
		c-3.91,2.89-9.52,5.09-14.15,6.58c-4.87,1.57-11.3,0.09-18.98-4.05C12.32,125.14-1.19,107.95,6.36,85.32z"/>
	<g class="st1">
		<path class="st2" d="M36.87,79.93c0,7.01-4.43,10.67-9.28,10.67c-5.1,0-9.12-3.81-9.12-10.1c0-5.98,3.66-10.51,9.38-10.51
			C33.62,69.98,36.87,74.21,36.87,79.93z M24.29,80.29c0,3.5,1.19,6.03,3.45,6.03c2.22,0,3.3-2.27,3.3-6.03
			c0-3.4-0.93-6.03-3.35-6.03C25.38,74.26,24.29,76.94,24.29,80.29z M28,104.62l19.22-34.63h4.23l-19.28,34.63
			C32.17,104.62,28,104.62,28,104.62z M60.99,93.85c0,7.01-4.43,10.67-9.28,10.67c-5.05,0-9.07-3.81-9.12-10.1
			c0-5.98,3.66-10.51,9.38-10.51C57.74,83.9,60.99,88.12,60.99,93.85z M48.47,94.21c-0.05,3.5,1.13,6.03,3.4,6.03
			c2.22,0,3.3-2.27,3.3-6.03c0-3.4-0.88-6.03-3.3-6.03C49.5,88.18,48.47,90.86,48.47,94.21z"/>
	</g>
	<path class="st3" d="M74,88.68L39.76,6.67L5.53,88.68c0,0-9.06,29.81,22.64,44.68c7.23,3.39,15.95,3.39,23.18,0
		C83.06,118.5,74,88.68,74,88.68z"/>
</g>
</svg>
