<?xml version="1.0" encoding="utf-8"?>
<!-- Generator: Adobe Illustrator 26.1.0, SVG Export Plug-In . SVG Version: 6.00 Build 0)  -->
<svg version="1.1" id="Capa_1" xmlns="http://www.w3.org/2000/svg" xmlns:xlink="http://www.w3.org/1999/xlink" x="0px" y="0px"
	 viewBox="0 0 79.37 138.9" style="enable-background:new 0 0 79.37 138.9;" xml:space="preserve">
<style type="text/css">
	.st0{fill:#4587E5;stroke:#FFFFFF;stroke-width:2;stroke-miterlimit:10;}
	.st1{enable-background:new    ;}
	.st2{fill:#FFFFFF;}
	.st3{fill:none;stroke:#FFFFFF;stroke-width:3;stroke-miterlimit:10;}
</style>
<g>
	<path class="st0" d="M6.7,112.1c0,0,9.35-9.5,31.49,2.31c20.99,11.2,35-7.45,35-7.45s-2.05,17.59-22.64,26.56
		c0,0-13.63,4.53-26.59-1.8C15.72,127.69,14.44,124.87,6.7,112.1z"/>
	<g class="st1">
		<path class="st2" d="M36.79,80.09c0,7.01-4.43,10.67-9.28,10.67c-5.1,0-9.12-3.81-9.12-10.1c0-5.98,3.66-10.51,9.38-10.51
			C33.54,70.14,36.79,74.37,36.79,80.09z M24.21,80.45c0,3.5,1.19,6.03,3.45,6.03c2.22,0,3.3-2.27,3.3-6.03
			c0-3.4-0.93-6.03-3.35-6.03C25.3,74.42,24.21,77.1,24.21,80.45z M27.92,104.78l19.22-34.63h4.23L32.1,104.78H27.92z M60.91,94.01
			c0,7.01-4.43,10.67-9.28,10.67c-5.05,0-9.07-3.81-9.12-10.1c0-5.98,3.66-10.51,9.38-10.51C57.66,84.06,60.91,88.28,60.91,94.01z
			 M48.39,94.37c-0.05,3.5,1.13,6.03,3.4,6.03c2.22,0,3.3-2.27,3.3-6.03c0-3.4-0.88-6.03-3.3-6.03
			C49.42,88.34,48.39,91.02,48.39,94.37z"/>
	</g>
	<path class="st3" d="M73.92,88.84L39.69,6.83L5.45,88.84c0,0-9.06,29.81,22.64,44.68c7.23,3.39,15.95,3.39,23.18,0
		C82.98,118.66,73.92,88.84,73.92,88.84z"/>
</g>
</svg>
