<?xml version="1.0" encoding="utf-8"?>
<!-- Generator: Adobe Illustrator 26.1.0, SVG Export Plug-In . SVG Version: 6.00 Build 0)  -->
<svg version="1.1" id="Capa_1" xmlns="http://www.w3.org/2000/svg" xmlns:xlink="http://www.w3.org/1999/xlink" x="0px" y="0px"
	 viewBox="0 0 79.37 138.9" style="enable-background:new 0 0 79.37 138.9;" xml:space="preserve">
<style type="text/css">
	.st0{fill:none;stroke:#FDFEFF;stroke-width:3;stroke-miterlimit:10;}
	.st1{enable-background:new    ;}
	.st2{fill:#FFFFFF;}
</style>
<path class="st0" d="M73.92,88.49l-34.23-82l-34.24,82c0,0-9.06,29.81,22.64,44.68c7.23,3.39,15.95,3.39,23.18,0
	C82.98,118.31,73.92,88.49,73.92,88.49z"/>
<g class="st1">
	<path class="st2" d="M36.79,79.74c0,7.01-4.43,10.67-9.28,10.67c-5.1,0-9.12-3.81-9.12-10.1c0-5.98,3.66-10.51,9.38-10.51
		C33.54,69.79,36.79,74.02,36.79,79.74z M24.21,80.1c0,3.5,1.19,6.03,3.45,6.03c2.22,0,3.3-2.27,3.3-6.03c0-3.4-0.93-6.03-3.35-6.03
		C25.3,74.07,24.21,76.75,24.21,80.1z M27.92,104.43L47.14,69.8h4.23L32.1,104.43H27.92z M60.91,93.66c0,7.01-4.43,10.67-9.28,10.67
		c-5.05,0-9.07-3.81-9.12-10.1c0-5.98,3.66-10.51,9.38-10.51C57.66,83.71,60.91,87.93,60.91,93.66z M48.39,94.02
		c-0.05,3.5,1.13,6.03,3.4,6.03c2.22,0,3.3-2.27,3.3-6.03c0-3.4-0.88-6.03-3.3-6.03C49.42,87.99,48.39,90.67,48.39,94.02z"/>
</g>
</svg>
