<?xml version="1.0" encoding="utf-8"?>
<!-- Generator: Adobe Illustrator 26.1.0, SVG Export Plug-In . SVG Version: 6.00 Build 0)  -->
<svg version="1.1" id="Capa_1" xmlns="http://www.w3.org/2000/svg" xmlns:xlink="http://www.w3.org/1999/xlink" x="0px" y="0px"
	 viewBox="0 0 79.37 138.9" style="enable-background:new 0 0 79.37 138.9;" xml:space="preserve">
<style type="text/css">
	.st0{fill:#4587E5;stroke:#FFFFFF;stroke-width:2;stroke-miterlimit:10;}
	.st1{enable-background:new    ;}
	.st2{fill:#FFFFFF;}
	.st3{fill:none;stroke:#FFFFFF;stroke-width:3;stroke-miterlimit:10;}
</style>
<g>
	<path class="st0" d="M18.23,58.43c0,0,7.9-9.88,22.09,0.5c13.52,8.37,19.76-2.7,19.76-2.7s25.02,42.9,8.75,63.18
		c-8.23,12.09-25.33,16.27-25.67,16.36c-4.96,1.26-19.02-4.89-26.7-9.03c-3.71-4.54-13.24-16.42-12.15-29.82
		C5.59,81.29,14.17,70.61,18.23,58.43z"/>
	<g class="st1">
		<path class="st2" d="M36.83,80.09c0,7.01-4.43,10.67-9.28,10.67c-5.1,0-9.12-3.81-9.12-10.1c0-5.98,3.66-10.51,9.38-10.51
			C33.58,70.14,36.83,74.37,36.83,80.09z M24.25,80.45c0,3.5,1.19,6.03,3.45,6.03c2.22,0,3.3-2.27,3.3-6.03
			c0-3.4-0.93-6.03-3.35-6.03C25.34,74.42,24.25,77.1,24.25,80.45z M27.96,104.78l19.22-34.63h4.23l-19.28,34.63H27.96z
			 M60.95,94.01c0,7.01-4.43,10.67-9.28,10.67c-5.05,0-9.07-3.81-9.12-10.1c0-5.98,3.66-10.51,9.38-10.51
			C57.7,84.06,60.95,88.28,60.95,94.01z M48.43,94.37c-0.05,3.5,1.13,6.03,3.4,6.03c2.22,0,3.3-2.27,3.3-6.03
			c0-3.4-0.88-6.03-3.3-6.03C49.46,88.34,48.43,91.02,48.43,94.37z"/>
	</g>
	<path class="st3" d="M73.96,88.84L39.72,6.83L5.49,88.84c0,0-9.06,29.81,22.64,44.68c7.23,3.39,15.95,3.39,23.18,0
		C83.02,118.66,73.96,88.84,73.96,88.84z"/>
</g>
</svg>
