<?xml version="1.0" encoding="utf-8"?>
<!-- Generator: Adobe Illustrator 26.1.0, SVG Export Plug-In . SVG Version: 6.00 Build 0)  -->
<svg version="1.1" id="Capa_1" xmlns="http://www.w3.org/2000/svg" xmlns:xlink="http://www.w3.org/1999/xlink" x="0px" y="0px"
	 viewBox="0 0 138.9 164.41" style="enable-background:new 0 0 138.9 164.41;" xml:space="preserve">
<style type="text/css">
	.st0{fill:#3B64AD;stroke:#FFFFFF;stroke-width:3;stroke-miterlimit:10;}
	.st1{fill:#3B64AD;}
</style>
<path class="st0" d="M20.51,74.19l90.61-0.03c13.36-0.54,24.02-11.53,24.02-25.02c0-13.83-11.21-25.05-25.05-25.05
	c-0.03,0-0.05,0-0.08,0c-5.62-11.82-17.68-20-31.65-20c-11.81,0-22.25,5.85-28.6,14.8c-3.07-1.56-6.55-2.44-10.23-2.44
	c-12.53,0-22.68,10.16-22.68,22.68c0,0.13,0.01,0.26,0.01,0.38C8.93,41.2,2.98,48.24,2.98,56.66C2.98,66.34,10.83,74.19,20.51,74.19
	"/>
<g>
	<path class="st1" d="M52.77,103.74l-3.51-9.5l-3.51,9.5c0,0-0.93,3.45,2.32,5.18c0.74,0.39,1.64,0.39,2.38,0
		C53.7,107.2,52.77,103.74,52.77,103.74z"/>
	<path class="st1" d="M90.49,103.74l-3.51-9.5l-3.51,9.5c0,0-0.93,3.45,2.32,5.18c0.74,0.39,1.64,0.39,2.38,0
		C91.42,107.2,90.49,103.74,90.49,103.74z"/>
	<path class="st1" d="M35.34,128.44l-3.51-9.5l-3.51,9.5c0,0-0.93,3.45,2.32,5.18c0.74,0.39,1.64,0.39,2.38,0
		C36.27,131.89,35.34,128.44,35.34,128.44z"/>
	<path class="st1" d="M73.06,128.44l-3.51-9.5l-3.51,9.5c0,0-0.93,3.45,2.32,5.18c0.74,0.39,1.64,0.39,2.38,0
		C73.99,131.89,73.06,128.44,73.06,128.44z"/>
	<path class="st1" d="M110.58,128.44l-3.51-9.5l-3.51,9.5c0,0-0.93,3.45,2.32,5.18c0.74,0.39,1.64,0.39,2.38,0
		C111.51,131.89,110.58,128.44,110.58,128.44z"/>
</g>
</svg>
