<?xml version="1.0" encoding="utf-8"?>
<!-- Generator: Adobe Illustrator 26.1.0, SVG Export Plug-In . SVG Version: 6.00 Build 0)  -->
<svg version="1.1" id="Capa_1" xmlns="http://www.w3.org/2000/svg" xmlns:xlink="http://www.w3.org/1999/xlink" x="0px" y="0px"
	 viewBox="0 0 141.73 323.15" style="enable-background:new 0 0 141.73 323.15;" xml:space="preserve">
<style type="text/css">
	.st0{fill:#E62D2D;}
	.st1{fill:none;stroke:#FFFFFF;stroke-width:8;}
</style>
<g>
	<path class="st0" d="M75.18,223.51V53.48c0-7.36-5.97-13.33-13.33-13.33s-13.33,5.97-13.33,13.33v170.03
		c-14.91,5.44-25.56,19.75-25.56,36.54c0,21.48,17.41,38.89,38.89,38.89s38.89-17.41,38.89-38.89
		C100.73,243.26,90.09,228.95,75.18,223.51z"/>
	<path class="st1" d="M89.85,209.1L89.76,30.51l0,0C88.67,16.04,76.59,4.64,61.85,4.64s-26.91,11.4-28,25.87l0,0V209.1
		c-18.05,9.91-30.29,29.08-30.29,51.13c0,32.19,26.1,58.29,58.29,58.29s58.29-26.1,58.29-58.29
		C120.13,238.19,107.89,219.01,89.85,209.1z"/>
	<path class="st0" d="M131.7,57.56h-26.67V44.61h26.67c6.48,6.48,0.08,0,6.48,6.48l0,0C131.7,57.56,138.17,51.08,131.7,57.56z"/>
	<path class="st0" d="M131.7,93.37h-26.67V80.42h26.67c6.48,6.48,0.08,0,6.48,6.48l0,0C131.7,93.37,138.17,86.89,131.7,93.37z"/>
	<path class="st0" d="M131.7,126.13h-26.67v-12.95h26.67c6.48,6.48,0.08,0,6.48,6.48l0,0C131.7,126.13,138.17,119.65,131.7,126.13z"
		/>
	<path class="st0" d="M131.7,158.89h-26.67v-12.95h26.67c6.48,6.48,0.08,0,6.48,6.48l0,0C131.7,158.89,138.17,152.42,131.7,158.89z"
		/>
	<path class="st0" d="M131.7,191.65h-26.67V178.7h26.67c6.48,6.48,0.08,0,6.48,6.48l0,0C131.7,191.65,138.17,185.18,131.7,191.65z"
		/>
</g>
</svg>
