<?xml version="1.0" encoding="utf-8"?>
<!-- Generator: Adobe Illustrator 26.1.0, SVG Export Plug-In . SVG Version: 6.00 Build 0)  -->
<svg version="1.1" id="Capa_1" xmlns="http://www.w3.org/2000/svg" xmlns:xlink="http://www.w3.org/1999/xlink" x="0px" y="0px"
	 viewBox="0 0 141.73 323.15" style="enable-background:new 0 0 141.73 323.15;" xml:space="preserve">
<style type="text/css">
	.st0{fill:none;stroke:#FFFFFF;stroke-width:8;}
	.st1{fill:#FFFFFF;}
	.st2{fill:#3259A6;}
</style>
<path class="st0" d="M89.71,208.98V30.39l0,0c-1.09-14.47-13.25-25.87-28-25.87s-26.91,11.4-28,25.87l0,0v178.59
	c-18.05,9.91-30.29,29.08-30.29,51.13c0,32.19,26.1,58.29,58.29,58.29S120,292.3,120,260.11
	C119.99,238.06,107.76,218.89,89.71,208.98z"/>
<path class="st1" d="M132.18,57.44h-26.67V44.49h26.67c6.48,6.48,0.08,0,6.48,6.48l0,0C132.18,57.44,138.66,50.96,132.18,57.44z"/>
<path class="st1" d="M132.18,93.25h-26.67V80.3h26.67c6.48,6.48,0.08,0,6.48,6.48l0,0C132.18,93.25,138.66,86.77,132.18,93.25z"/>
<path class="st1" d="M132.18,126.01h-26.67v-12.95h26.67c6.48,6.48,0.08,0,6.48,6.48l0,0C132.18,126.01,138.66,119.53,132.18,126.01
	z"/>
<path class="st1" d="M132.18,158.77h-26.67v-12.95h26.67c6.48,6.48,0.08,0,6.48,6.48l0,0C132.18,158.77,138.66,152.3,132.18,158.77z
	"/>
<path class="st2" d="M132.18,191.53h-26.67v-12.95h26.67c6.48,6.48,0.08,0,6.48,6.48l0,0C132.18,191.53,138.66,185.06,132.18,191.53
	z"/>
<path class="st2" d="M73.9,222.64v-29.33c0-7.36-5.97-13.33-13.33-13.33s-13.33,5.97-13.33,13.33v30.16
	c-14.31,5.74-24.41,19.73-24.41,36.09c0,21.48,17.41,38.89,38.89,38.89s38.89-17.41,38.89-38.89
	C100.6,242.35,89.4,227.75,73.9,222.64z"/>
</svg>
