<?xml version="1.0" encoding="utf-8"?>
<!-- Generator: Adobe Illustrator 26.1.0, SVG Export Plug-In . SVG Version: 6.00 Build 0)  -->
<svg version="1.1" id="Capa_1" xmlns="http://www.w3.org/2000/svg" xmlns:xlink="http://www.w3.org/1999/xlink" x="0px" y="0px"
	 viewBox="0 0 141.73 323.15" style="enable-background:new 0 0 141.73 323.15;" xml:space="preserve">
<style type="text/css">
	.st0{fill:#ED6D19;}
	.st1{fill:none;stroke:#FFFFFF;stroke-width:8;}
	.st2{fill:#FFFFFF;}
</style>
<g>
	<path class="st0" d="M73.72,222.36V91.45H73.7c0-0.13,0.02-0.25,0.02-0.38c0-7.36-5.97-13.33-13.33-13.33s-13.33,5.97-13.33,13.33
		c0,0.13,0.02,0.25,0.02,0.38h-0.02V223.2c-14.31,5.74-24.41,19.73-24.41,36.09c0,21.48,17.41,38.89,38.89,38.89
		s38.89-17.41,38.89-38.89C100.42,242.07,89.23,227.47,73.72,222.36z"/>
	<path class="st1" d="M89.53,209.1L89.44,30.51l0,0C88.36,16.04,76.28,4.64,61.53,4.64s-26.82,11.4-27.91,25.87l0,0L33.53,209.1
		c-18.05,9.91-30.29,29.08-30.29,51.13c0,32.19,26.1,58.29,58.29,58.29s58.29-26.1,58.29-58.29
		C119.82,238.19,107.58,219.01,89.53,209.1z"/>
	<path class="st2" d="M132.01,57.56h-26.67V44.61h26.67c6.48,6.48,0.08,0,6.48,6.48l0,0C132.01,57.56,138.49,51.08,132.01,57.56z"/>
	<path class="st0" d="M132.01,93.37h-26.67V80.42h26.67c6.48,6.48,0.08,0,6.48,6.48l0,0C132.01,93.37,138.49,86.89,132.01,93.37z"/>
	<path class="st0" d="M132.01,126.13h-26.67v-12.95h26.67c6.48,6.48,0.08,0,6.48,6.48l0,0
		C132.01,126.13,138.49,119.65,132.01,126.13z"/>
	<path class="st0" d="M132.01,158.89h-26.67v-12.95h26.67c6.48,6.48,0.08,0,6.48,6.48l0,0
		C132.01,158.89,138.49,152.42,132.01,158.89z"/>
	<path class="st0" d="M132.01,191.65h-26.67V178.7h26.67c6.48,6.48,0.08,0,6.48,6.48l0,0C132.01,191.65,138.49,185.18,132.01,191.65
		z"/>
</g>
</svg>
