<?xml version="1.0" encoding="utf-8"?>
<!-- Generator: Adobe Illustrator 26.1.0, SVG Export Plug-In . SVG Version: 6.00 Build 0)  -->
<svg version="1.1" id="Capa_1" xmlns="http://www.w3.org/2000/svg" xmlns:xlink="http://www.w3.org/1999/xlink" x="0px" y="0px"
	 viewBox="0 0 99.21 85.04" style="enable-background:new 0 0 99.21 85.04;" xml:space="preserve">
<style type="text/css">
	.st0{fill:none;stroke:#213A8F;stroke-width:5;stroke-miterlimit:10;}
</style>
<g>
	<path class="st0" d="M4.31,34.71h58.97c0,0,15.48,1.05,15.48-15.48S62.83,3.31,62.83,3.31S47.98,1.48,47.98,19.01"/>
	<path class="st0" d="M4.31,25.73h29.49c0,0,7.74,0.52,7.74-7.74s-7.96-7.96-7.96-7.96s-7.42-0.92-7.42,7.85"/>
	<path class="st0" d="M4.31,43.51h71.76c0,0,18.83-1.27,18.83,18.83S75.52,81.72,75.52,81.72s-18.07,2.23-18.07-19.11"/>
	<path class="st0" d="M4.31,52.49h33.31c0,0,8.74-0.59,8.74,8.74s-9,9-9,9s-8.39,1.03-8.39-8.87"/>
</g>
</svg>
