<?xml version="1.0" encoding="utf-8"?>
<!-- Generator: Adobe Illustrator 26.1.0, SVG Export Plug-In . SVG Version: 6.00 Build 0)  -->
<svg version="1.1" id="Capa_1" xmlns="http://www.w3.org/2000/svg" xmlns:xlink="http://www.w3.org/1999/xlink" x="0px" y="0px"
	 viewBox="0 0 138.9 164.41" style="enable-background:new 0 0 138.9 164.41;" xml:space="preserve">
<style type="text/css">
	.st0{fill:#848484;stroke:#FFFFFF;stroke-width:3;stroke-miterlimit:10;}
	.st1{fill:none;stroke:#FFFFFF;stroke-miterlimit:10;}
</style>
<path class="st0" d="M20.51,74.19l90.61-0.03c13.36-0.54,24.02-11.53,24.02-25.02c0-13.83-11.21-25.05-25.05-25.05
	c-0.03,0-0.05,0-0.08,0c-5.62-11.82-17.68-20-31.65-20c-11.81,0-22.25,5.85-28.6,14.8c-3.07-1.56-6.55-2.44-10.23-2.44
	c-12.53,0-22.68,10.16-22.68,22.68c0,0.13,0.01,0.26,0.01,0.38C8.93,41.2,2.98,48.24,2.98,56.66C2.98,66.34,10.83,74.19,20.51,74.19
	"/>
<g>
	<line class="st1" x1="24.47" y1="86.83" x2="37.86" y2="94.56"/>
	<line class="st1" x1="24.47" y1="94.56" x2="37.86" y2="86.83"/>
	<line class="st1" x1="31.17" y1="98.42" x2="31.17" y2="82.96"/>
	<polyline class="st1" points="33.74,83.04 31.15,84.88 31.15,81.88 	"/>
	<line class="st1" x1="31.15" y1="84.88" x2="28.42" y2="83.14"/>
	<polyline class="st1" points="39.09,88.93 36.33,87.69 38.79,86.24 	"/>
	<line class="st1" x1="36.33" y1="87.69" x2="36.44" y2="84.6"/>
	<polyline class="st1" points="25.94,84.77 26.25,87.82 23.74,86.39 	"/>
	<line class="st1" x1="26.25" y1="87.82" x2="23.49" y2="89.28"/>
	<polyline class="st1" points="33.74,98.57 31.15,96.72 31.15,99.72 	"/>
	<line class="st1" x1="31.15" y1="96.72" x2="28.42" y2="98.46"/>
	<polyline class="st1" points="39.03,92.4 36.27,93.64 38.73,95.08 	"/>
	<line class="st1" x1="36.27" y1="93.64" x2="36.39" y2="96.71"/>
	<polyline class="st1" points="25.94,96.58 26.25,93.53 23.74,94.96 	"/>
	<line class="st1" x1="26.25" y1="93.53" x2="23.49" y2="92.07"/>
</g>
<g>
	<line class="st1" x1="100.02" y1="86.05" x2="113.41" y2="93.78"/>
	<line class="st1" x1="100.02" y1="93.78" x2="113.41" y2="86.05"/>
	<line class="st1" x1="106.71" y1="97.64" x2="106.71" y2="82.18"/>
	<polyline class="st1" points="109.28,82.26 106.7,84.1 106.7,81.1 	"/>
	<line class="st1" x1="106.7" y1="84.1" x2="103.97" y2="82.36"/>
	<polyline class="st1" points="114.64,88.15 111.87,86.91 114.34,85.46 	"/>
	<line class="st1" x1="111.87" y1="86.91" x2="111.98" y2="83.82"/>
	<polyline class="st1" points="101.48,83.99 101.8,87.04 99.28,85.61 	"/>
	<line class="st1" x1="101.8" y1="87.04" x2="99.04" y2="88.5"/>
	<polyline class="st1" points="109.28,97.79 106.7,95.94 106.7,98.94 	"/>
	<line class="st1" x1="106.7" y1="95.94" x2="103.97" y2="97.68"/>
	<polyline class="st1" points="114.57,91.62 111.82,92.86 114.27,94.3 	"/>
	<line class="st1" x1="111.82" y1="92.86" x2="111.93" y2="95.93"/>
	<polyline class="st1" points="101.49,95.8 101.8,92.75 99.28,94.18 	"/>
	<line class="st1" x1="101.8" y1="92.75" x2="99.03" y2="91.29"/>
</g>
<g>
	<line class="st1" x1="62.5" y1="86.72" x2="75.88" y2="94.45"/>
	<line class="st1" x1="62.5" y1="94.45" x2="75.88" y2="86.72"/>
	<line class="st1" x1="69.19" y1="98.31" x2="69.19" y2="82.86"/>
	<polyline class="st1" points="71.76,82.93 69.17,84.77 69.17,81.77 	"/>
	<line class="st1" x1="69.17" y1="84.77" x2="66.44" y2="83.03"/>
	<polyline class="st1" points="77.11,88.82 74.35,87.58 76.81,86.13 	"/>
	<line class="st1" x1="74.35" y1="87.58" x2="74.46" y2="84.5"/>
	<polyline class="st1" points="63.96,84.66 64.28,87.71 61.76,86.28 	"/>
	<line class="st1" x1="64.27" y1="87.71" x2="61.51" y2="89.17"/>
	<polyline class="st1" points="71.76,98.46 69.17,96.62 69.17,99.61 	"/>
	<line class="st1" x1="69.17" y1="96.62" x2="66.44" y2="98.35"/>
	<polyline class="st1" points="77.05,92.3 74.3,93.53 76.75,94.97 	"/>
	<line class="st1" x1="74.3" y1="93.53" x2="74.41" y2="96.6"/>
	<polyline class="st1" points="63.96,96.47 64.27,93.42 61.76,94.85 	"/>
	<line class="st1" x1="64.27" y1="93.42" x2="61.51" y2="91.96"/>
</g>
<g>
	<line class="st1" x1="42.52" y1="108.33" x2="55.9" y2="116.06"/>
	<line class="st1" x1="42.52" y1="116.06" x2="55.9" y2="108.33"/>
	<line class="st1" x1="49.21" y1="119.92" x2="49.21" y2="104.47"/>
	<polyline class="st1" points="51.78,104.54 49.19,106.38 49.19,103.38 	"/>
	<line class="st1" x1="49.19" y1="106.38" x2="46.46" y2="104.64"/>
	<polyline class="st1" points="57.13,110.43 54.37,109.19 56.84,107.74 	"/>
	<line class="st1" x1="54.37" y1="109.19" x2="54.48" y2="106.11"/>
	<polyline class="st1" points="43.98,106.27 44.3,109.32 41.78,107.89 	"/>
	<line class="st1" x1="44.29" y1="109.32" x2="41.53" y2="110.78"/>
	<polyline class="st1" points="51.78,120.07 49.19,118.23 49.19,121.22 	"/>
	<line class="st1" x1="49.19" y1="118.23" x2="46.46" y2="119.96"/>
	<polyline class="st1" points="57.07,113.91 54.32,115.14 56.77,116.58 	"/>
	<line class="st1" x1="54.32" y1="115.14" x2="54.43" y2="118.21"/>
	<polyline class="st1" points="43.99,118.08 44.3,115.03 41.78,116.46 	"/>
	<line class="st1" x1="44.3" y1="115.03" x2="41.53" y2="113.57"/>
</g>
<g>
	<line class="st1" x1="80.23" y1="108.1" x2="93.62" y2="115.83"/>
	<line class="st1" x1="80.23" y1="115.83" x2="93.62" y2="108.1"/>
	<line class="st1" x1="86.92" y1="119.69" x2="86.92" y2="104.23"/>
	<polyline class="st1" points="89.49,104.3 86.91,106.15 86.91,103.15 	"/>
	<line class="st1" x1="86.91" y1="106.15" x2="84.18" y2="104.41"/>
	<polyline class="st1" points="94.85,110.19 92.08,108.96 94.55,107.51 	"/>
	<line class="st1" x1="92.08" y1="108.96" x2="92.2" y2="105.87"/>
	<polyline class="st1" points="81.7,106.04 82.01,109.09 79.49,107.66 	"/>
	<line class="st1" x1="82.01" y1="109.09" x2="79.25" y2="110.55"/>
	<polyline class="st1" points="89.49,119.84 86.91,117.99 86.91,120.99 	"/>
	<line class="st1" x1="86.91" y1="117.99" x2="84.18" y2="119.73"/>
	<polyline class="st1" points="94.79,113.67 92.03,114.91 94.49,116.35 	"/>
	<line class="st1" x1="92.03" y1="114.91" x2="92.14" y2="117.98"/>
	<polyline class="st1" points="81.7,117.85 82.01,114.8 79.5,116.23 	"/>
	<line class="st1" x1="82.01" y1="114.8" x2="79.25" y2="113.34"/>
</g>
<g>
	<line class="st1" x1="24.6" y1="127.63" x2="37.99" y2="135.36"/>
	<line class="st1" x1="24.6" y1="135.36" x2="37.99" y2="127.63"/>
	<line class="st1" x1="31.29" y1="139.22" x2="31.29" y2="123.77"/>
	<polyline class="st1" points="33.86,123.84 31.28,125.68 31.28,122.68 	"/>
	<line class="st1" x1="31.28" y1="125.68" x2="28.55" y2="123.94"/>
	<polyline class="st1" points="39.22,129.73 36.45,128.49 38.92,127.04 	"/>
	<line class="st1" x1="36.45" y1="128.49" x2="36.57" y2="125.41"/>
	<polyline class="st1" points="26.06,125.57 26.38,128.62 23.86,127.19 	"/>
	<line class="st1" x1="26.38" y1="128.62" x2="23.62" y2="130.08"/>
	<polyline class="st1" points="33.86,139.37 31.28,137.53 31.28,140.52 	"/>
	<line class="st1" x1="31.28" y1="137.53" x2="28.55" y2="139.26"/>
	<polyline class="st1" points="39.15,133.21 36.4,134.44 38.86,135.88 	"/>
	<line class="st1" x1="36.4" y1="134.44" x2="36.51" y2="137.51"/>
	<polyline class="st1" points="26.07,137.38 26.38,134.33 23.86,135.76 	"/>
	<line class="st1" x1="26.38" y1="134.33" x2="23.61" y2="132.87"/>
</g>
<g>
	<line class="st1" x1="100.15" y1="126.85" x2="113.53" y2="134.58"/>
	<line class="st1" x1="100.15" y1="134.58" x2="113.53" y2="126.85"/>
	<line class="st1" x1="106.84" y1="138.44" x2="106.84" y2="122.99"/>
	<polyline class="st1" points="109.41,123.06 106.82,124.9 106.82,121.9 	"/>
	<line class="st1" x1="106.82" y1="124.9" x2="104.09" y2="123.16"/>
	<polyline class="st1" points="114.76,128.95 112,127.71 114.46,126.26 	"/>
	<line class="st1" x1="112" y1="127.71" x2="112.11" y2="124.63"/>
	<polyline class="st1" points="101.61,124.79 101.93,127.84 99.41,126.41 	"/>
	<line class="st1" x1="101.92" y1="127.84" x2="99.16" y2="129.3"/>
	<polyline class="st1" points="109.41,138.59 106.82,136.75 106.82,139.74 	"/>
	<line class="st1" x1="106.82" y1="136.75" x2="104.09" y2="138.48"/>
	<polyline class="st1" points="114.7,132.43 111.95,133.66 114.4,135.1 	"/>
	<line class="st1" x1="111.95" y1="133.66" x2="112.06" y2="136.73"/>
	<polyline class="st1" points="101.61,136.6 101.92,133.55 99.41,134.98 	"/>
	<line class="st1" x1="101.92" y1="133.55" x2="99.16" y2="132.09"/>
</g>
<g>
	<line class="st1" x1="62.62" y1="127.52" x2="76.01" y2="135.25"/>
	<line class="st1" x1="62.62" y1="135.25" x2="76.01" y2="127.52"/>
	<line class="st1" x1="69.31" y1="139.11" x2="69.31" y2="123.66"/>
	<polyline class="st1" points="71.88,123.73 69.3,125.57 69.3,122.57 	"/>
	<line class="st1" x1="69.3" y1="125.57" x2="66.57" y2="123.83"/>
	<polyline class="st1" points="77.24,129.62 74.48,128.38 76.94,126.93 	"/>
	<line class="st1" x1="74.48" y1="128.38" x2="74.59" y2="125.3"/>
	<polyline class="st1" points="64.09,125.46 64.4,128.51 61.88,127.08 	"/>
	<line class="st1" x1="64.4" y1="128.51" x2="61.64" y2="129.97"/>
	<polyline class="st1" points="71.88,139.26 69.3,137.42 69.3,140.41 	"/>
	<line class="st1" x1="69.3" y1="137.42" x2="66.57" y2="139.16"/>
	<polyline class="st1" points="77.18,133.1 74.42,134.33 76.88,135.77 	"/>
	<line class="st1" x1="74.42" y1="134.33" x2="74.53" y2="137.4"/>
	<polyline class="st1" points="64.09,137.27 64.4,134.22 61.89,135.65 	"/>
	<line class="st1" x1="64.4" y1="134.22" x2="61.64" y2="132.76"/>
</g>
<g>
	<line class="st1" x1="42.64" y1="149.13" x2="56.03" y2="156.86"/>
	<line class="st1" x1="42.64" y1="156.86" x2="56.03" y2="149.13"/>
	<line class="st1" x1="49.34" y1="160.72" x2="49.34" y2="145.27"/>
	<polyline class="st1" points="51.91,145.34 49.32,147.18 49.32,144.19 	"/>
	<line class="st1" x1="49.32" y1="147.18" x2="46.59" y2="145.44"/>
	<polyline class="st1" points="57.26,151.23 54.5,149.99 56.96,148.55 	"/>
	<line class="st1" x1="54.5" y1="149.99" x2="54.61" y2="146.91"/>
	<polyline class="st1" points="44.11,147.07 44.42,150.12 41.91,148.69 	"/>
	<line class="st1" x1="44.42" y1="150.12" x2="41.66" y2="151.58"/>
	<polyline class="st1" points="51.91,160.87 49.32,159.03 49.32,162.02 	"/>
	<line class="st1" x1="49.32" y1="159.03" x2="46.59" y2="160.77"/>
	<polyline class="st1" points="57.2,154.71 54.44,155.94 56.9,157.38 	"/>
	<line class="st1" x1="54.44" y1="155.94" x2="54.56" y2="159.01"/>
	<polyline class="st1" points="44.11,158.88 44.42,155.83 41.91,157.26 	"/>
	<line class="st1" x1="44.42" y1="155.83" x2="41.66" y2="154.37"/>
</g>
<g>
	<line class="st1" x1="80.36" y1="148.9" x2="93.74" y2="156.63"/>
	<line class="st1" x1="80.36" y1="156.63" x2="93.74" y2="148.9"/>
	<line class="st1" x1="87.05" y1="160.49" x2="87.05" y2="145.03"/>
	<polyline class="st1" points="89.62,145.11 87.03,146.95 87.03,143.95 	"/>
	<line class="st1" x1="87.03" y1="146.95" x2="84.3" y2="145.21"/>
	<polyline class="st1" points="94.97,151 92.21,149.76 94.68,148.31 	"/>
	<line class="st1" x1="92.21" y1="149.76" x2="92.32" y2="146.67"/>
	<polyline class="st1" points="81.82,146.84 82.14,149.89 79.62,148.46 	"/>
	<line class="st1" x1="82.13" y1="149.89" x2="79.37" y2="151.35"/>
	<polyline class="st1" points="89.62,160.64 87.03,158.79 87.03,161.79 	"/>
	<line class="st1" x1="87.03" y1="158.79" x2="84.3" y2="160.53"/>
	<polyline class="st1" points="94.91,154.47 92.16,155.71 94.61,157.15 	"/>
	<line class="st1" x1="92.16" y1="155.71" x2="92.27" y2="158.78"/>
	<polyline class="st1" points="81.83,158.65 82.14,155.6 79.62,157.03 	"/>
	<line class="st1" x1="82.14" y1="155.6" x2="79.37" y2="154.14"/>
</g>
</svg>
